<svg xmlns="http://www.w3.org/2000/svg" xml:space="preserve" xmlns:xlink="http://www.w3.org/1999/xlink" style="max-width: 100%;height: auto;" width="1085.3333333333" height="1403.6977777778" viewBox="0 0 1085.3333333333 1403.6977777778">
<rect width="1004.8377777778" height="1004.8377777778" fill="#ffffff" x="40.222222222222" y="40.222222222222"></rect>
<g fill="#DE5853" transform="scale(45.222222222222)"> <path transform="scale(0.086)" d="M36,279.8z M0,13.7v251.7c0,7.6,6.2,13.7,13.7,13.7h251.8c7.6,0,13.7-6.2,13.7-13.7V13.7C279.1,6.1,273,0,265.4,0H13.8  C6.2,0,0.1,6.1,0,13.7z M10.6,17.9c0-4.1,3.3-7.4,7.4-7.4h243.2c4.1,0,7.4,3.3,7.4,7.4v243.2c0,4.1-3.3,7.4-7.4,7.4H18  c-4.1,0-7.4-3.3-7.4-7.4V17.9z"></path><path transform="scale(0.086)" d="M36,287.8  c-19.8,0-35.9,16.1-35.8,37l0,0c0,19.8,16.1,35.9,35.9,35.9h207.1c19.8,0,35.9-16.1,35.9-35.9l0,0c0-19.9-16.1-36-35.9-37H36"></path><path transform="scale(0.09) translate(-208, -16)" id="circle-lf" fill="#FFFFFF" d="M214.7,325.7c0,15.8,12.7,28.5,28.5,28.5s28.5-12.7,28.5-28.5s-12.7-28.5-28.5-28.5  S214.7,310,214.7,325.7z"></path><path transform="scale(0.12) translate(13.5, 220)" d="M8,21H4a1,1,0,0,1-1-1V16a1,1,0,0,0-2,0v4a3,3,0,0,0,3,3H8a1,1,0,0,0,0-2Zm14-6a1,1,0,0,0-1,1v4a1,1,0,0,1-1,1H16a1,1,0,0,0,0,2h4a3,3,0,0,0,3-3V16A1,1,0,0,0,22,15ZM20,1H16a1,1,0,0,0,0,2h4a1,1,0,0,1,1,1V8a1,1,0,0,0,2,0V4A3,3,0,0,0,20,1ZM2,9A1,1,0,0,0,3,8V4A1,1,0,0,1,4,3H8A1,1,0,0,0,8,1H4A3,3,0,0,0,1,4V8A1,1,0,0,0,2,9Zm8-4H6A1,1,0,0,0,5,6v4a1,1,0,0,0,1,1h4a1,1,0,0,0,1-1V6A1,1,0,0,0,10,5ZM9,9H7V7H9Zm5,2h4a1,1,0,0,0,1-1V6a1,1,0,0,0-1-1H14a1,1,0,0,0-1,1v4A1,1,0,0,0,14,11Zm1-4h2V9H15Zm-5,6H6a1,1,0,0,0-1,1v4a1,1,0,0,0,1,1h4a1,1,0,0,0,1-1V14A1,1,0,0,0,10,13ZM9,17H7V15H9Zm5-1a1,1,0,0,0,1-1,1,1,0,0,0,0-2H14a1,1,0,0,0-1,1v1A1,1,0,0,0,14,16Zm4-3a1,1,0,0,0-1,1v3a1,1,0,0,0,0,2h1a1,1,0,0,0,1-1V14A1,1,0,0,0,18,13Zm-4,4a1,1,0,1,0,1,1A1,1,0,0,0,14,17Z"></path></g>
<g fill="#000000">
<g transform="translate(311.66666666667,135.66666666667) scale(3.7766666666667)"><rect width="6" height="6"></rect></g>
<g transform="translate(355.66666666667,135.66666666667) scale(3.7766666666667)"><rect width="6" height="6"></rect></g>
<g transform="translate(377.66666666667,135.66666666667) scale(3.7766666666667)"><rect width="6" height="6"></rect></g>
<g transform="translate(399.66666666667,135.66666666667) scale(3.7766666666667)"><rect width="6" height="6"></rect></g>
<g transform="translate(443.66666666667,135.66666666667) scale(3.7766666666667)"><rect width="6" height="6"></rect></g>
<g transform="translate(487.66666666667,135.66666666667) scale(3.7766666666667)"><rect width="6" height="6"></rect></g>
<g transform="translate(531.66666666667,135.66666666667) scale(3.7766666666667)"><rect width="6" height="6"></rect></g>
<g transform="translate(663.66666666667,135.66666666667) scale(3.7766666666667)"><rect width="6" height="6"></rect></g>
<g transform="translate(311.66666666667,157.66666666667) scale(3.7766666666667)"><rect width="6" height="6"></rect></g>
<g transform="translate(333.66666666667,157.66666666667) scale(3.7766666666667)"><rect width="6" height="6"></rect></g>
<g transform="translate(399.66666666667,157.66666666667) scale(3.7766666666667)"><rect width="6" height="6"></rect></g>
<g transform="translate(443.66666666667,157.66666666667) scale(3.7766666666667)"><rect width="6" height="6"></rect></g>
<g transform="translate(465.66666666667,157.66666666667) scale(3.7766666666667)"><rect width="6" height="6"></rect></g>
<g transform="translate(531.66666666667,157.66666666667) scale(3.7766666666667)"><rect width="6" height="6"></rect></g>
<g transform="translate(575.66666666667,157.66666666667) scale(3.7766666666667)"><rect width="6" height="6"></rect></g>
<g transform="translate(597.66666666667,157.66666666667) scale(3.7766666666667)"><rect width="6" height="6"></rect></g>
<g transform="translate(619.66666666667,157.66666666667) scale(3.7766666666667)"><rect width="6" height="6"></rect></g>
<g transform="translate(641.66666666667,157.66666666667) scale(3.7766666666667)"><rect width="6" height="6"></rect></g>
<g transform="translate(663.66666666667,157.66666666667) scale(3.7766666666667)"><rect width="6" height="6"></rect></g>
<g transform="translate(685.66666666667,157.66666666667) scale(3.7766666666667)"><rect width="6" height="6"></rect></g>
<g transform="translate(729.66666666667,157.66666666667) scale(3.7766666666667)"><rect width="6" height="6"></rect></g>
<g transform="translate(751.66666666667,157.66666666667) scale(3.7766666666667)"><rect width="6" height="6"></rect></g>
<g transform="translate(311.66666666667,179.66666666667) scale(3.7766666666667)"><rect width="6" height="6"></rect></g>
<g transform="translate(355.66666666667,179.66666666667) scale(3.7766666666667)"><rect width="6" height="6"></rect></g>
<g transform="translate(465.66666666667,179.66666666667) scale(3.7766666666667)"><rect width="6" height="6"></rect></g>
<g transform="translate(509.66666666667,179.66666666667) scale(3.7766666666667)"><rect width="6" height="6"></rect></g>
<g transform="translate(575.66666666667,179.66666666667) scale(3.7766666666667)"><rect width="6" height="6"></rect></g>
<g transform="translate(663.66666666667,179.66666666667) scale(3.7766666666667)"><rect width="6" height="6"></rect></g>
<g transform="translate(707.66666666667,179.66666666667) scale(3.7766666666667)"><rect width="6" height="6"></rect></g>
<g transform="translate(729.66666666667,179.66666666667) scale(3.7766666666667)"><rect width="6" height="6"></rect></g>
<g transform="translate(751.66666666667,179.66666666667) scale(3.7766666666667)"><rect width="6" height="6"></rect></g>
<g transform="translate(377.66666666667,201.66666666667) scale(3.7766666666667)"><rect width="6" height="6"></rect></g>
<g transform="translate(443.66666666667,201.66666666667) scale(3.7766666666667)"><rect width="6" height="6"></rect></g>
<g transform="translate(487.66666666667,201.66666666667) scale(3.7766666666667)"><rect width="6" height="6"></rect></g>
<g transform="translate(509.66666666667,201.66666666667) scale(3.7766666666667)"><rect width="6" height="6"></rect></g>
<g transform="translate(531.66666666667,201.66666666667) scale(3.7766666666667)"><rect width="6" height="6"></rect></g>
<g transform="translate(553.66666666667,201.66666666667) scale(3.7766666666667)"><rect width="6" height="6"></rect></g>
<g transform="translate(619.66666666667,201.66666666667) scale(3.7766666666667)"><rect width="6" height="6"></rect></g>
<g transform="translate(663.66666666667,201.66666666667) scale(3.7766666666667)"><rect width="6" height="6"></rect></g>
<g transform="translate(685.66666666667,201.66666666667) scale(3.7766666666667)"><rect width="6" height="6"></rect></g>
<g transform="translate(707.66666666667,201.66666666667) scale(3.7766666666667)"><rect width="6" height="6"></rect></g>
<g transform="translate(377.66666666667,223.66666666667) scale(3.7766666666667)"><rect width="6" height="6"></rect></g>
<g transform="translate(443.66666666667,223.66666666667) scale(3.7766666666667)"><rect width="6" height="6"></rect></g>
<g transform="translate(487.66666666667,223.66666666667) scale(3.7766666666667)"><rect width="6" height="6"></rect></g>
<g transform="translate(575.66666666667,223.66666666667) scale(3.7766666666667)"><rect width="6" height="6"></rect></g>
<g transform="translate(619.66666666667,223.66666666667) scale(3.7766666666667)"><rect width="6" height="6"></rect></g>
<g transform="translate(311.66666666667,245.66666666667) scale(3.7766666666667)"><rect width="6" height="6"></rect></g>
<g transform="translate(377.66666666667,245.66666666667) scale(3.7766666666667)"><rect width="6" height="6"></rect></g>
<g transform="translate(399.66666666667,245.66666666667) scale(3.7766666666667)"><rect width="6" height="6"></rect></g>
<g transform="translate(443.66666666667,245.66666666667) scale(3.7766666666667)"><rect width="6" height="6"></rect></g>
<g transform="translate(465.66666666667,245.66666666667) scale(3.7766666666667)"><rect width="6" height="6"></rect></g>
<g transform="translate(531.66666666667,245.66666666667) scale(3.7766666666667)"><rect width="6" height="6"></rect></g>
<g transform="translate(553.66666666667,245.66666666667) scale(3.7766666666667)"><rect width="6" height="6"></rect></g>
<g transform="translate(619.66666666667,245.66666666667) scale(3.7766666666667)"><rect width="6" height="6"></rect></g>
<g transform="translate(707.66666666667,245.66666666667) scale(3.7766666666667)"><rect width="6" height="6"></rect></g>
<g transform="translate(729.66666666667,245.66666666667) scale(3.7766666666667)"><rect width="6" height="6"></rect></g>
<g transform="translate(751.66666666667,245.66666666667) scale(3.7766666666667)"><rect width="6" height="6"></rect></g>
<g transform="translate(311.66666666667,267.66666666667) scale(3.7766666666667)"><rect width="6" height="6"></rect></g>
<g transform="translate(355.66666666667,267.66666666667) scale(3.7766666666667)"><rect width="6" height="6"></rect></g>
<g transform="translate(399.66666666667,267.66666666667) scale(3.7766666666667)"><rect width="6" height="6"></rect></g>
<g transform="translate(443.66666666667,267.66666666667) scale(3.7766666666667)"><rect width="6" height="6"></rect></g>
<g transform="translate(487.66666666667,267.66666666667) scale(3.7766666666667)"><rect width="6" height="6"></rect></g>
<g transform="translate(531.66666666667,267.66666666667) scale(3.7766666666667)"><rect width="6" height="6"></rect></g>
<g transform="translate(575.66666666667,267.66666666667) scale(3.7766666666667)"><rect width="6" height="6"></rect></g>
<g transform="translate(619.66666666667,267.66666666667) scale(3.7766666666667)"><rect width="6" height="6"></rect></g>
<g transform="translate(663.66666666667,267.66666666667) scale(3.7766666666667)"><rect width="6" height="6"></rect></g>
<g transform="translate(707.66666666667,267.66666666667) scale(3.7766666666667)"><rect width="6" height="6"></rect></g>
<g transform="translate(751.66666666667,267.66666666667) scale(3.7766666666667)"><rect width="6" height="6"></rect></g>
<g transform="translate(311.66666666667,289.66666666667) scale(3.7766666666667)"><rect width="6" height="6"></rect></g>
<g transform="translate(421.66666666667,289.66666666667) scale(3.7766666666667)"><rect width="6" height="6"></rect></g>
<g transform="translate(443.66666666667,289.66666666667) scale(3.7766666666667)"><rect width="6" height="6"></rect></g>
<g transform="translate(531.66666666667,289.66666666667) scale(3.7766666666667)"><rect width="6" height="6"></rect></g>
<g transform="translate(641.66666666667,289.66666666667) scale(3.7766666666667)"><rect width="6" height="6"></rect></g>
<g transform="translate(751.66666666667,289.66666666667) scale(3.7766666666667)"><rect width="6" height="6"></rect></g>
<g transform="translate(179.66666666667,311.66666666667) scale(3.7766666666667)"><rect width="6" height="6"></rect></g>
<g transform="translate(201.66666666667,311.66666666667) scale(3.7766666666667)"><rect width="6" height="6"></rect></g>
<g transform="translate(223.66666666667,311.66666666667) scale(3.7766666666667)"><rect width="6" height="6"></rect></g>
<g transform="translate(267.66666666667,311.66666666667) scale(3.7766666666667)"><rect width="6" height="6"></rect></g>
<g transform="translate(311.66666666667,311.66666666667) scale(3.7766666666667)"><rect width="6" height="6"></rect></g>
<g transform="translate(377.66666666667,311.66666666667) scale(3.7766666666667)"><rect width="6" height="6"></rect></g>
<g transform="translate(421.66666666667,311.66666666667) scale(3.7766666666667)"><rect width="6" height="6"></rect></g>
<g transform="translate(465.66666666667,311.66666666667) scale(3.7766666666667)"><rect width="6" height="6"></rect></g>
<g transform="translate(531.66666666667,311.66666666667) scale(3.7766666666667)"><rect width="6" height="6"></rect></g>
<g transform="translate(619.66666666667,311.66666666667) scale(3.7766666666667)"><rect width="6" height="6"></rect></g>
<g transform="translate(641.66666666667,311.66666666667) scale(3.7766666666667)"><rect width="6" height="6"></rect></g>
<g transform="translate(685.66666666667,311.66666666667) scale(3.7766666666667)"><rect width="6" height="6"></rect></g>
<g transform="translate(707.66666666667,311.66666666667) scale(3.7766666666667)"><rect width="6" height="6"></rect></g>
<g transform="translate(751.66666666667,311.66666666667) scale(3.7766666666667)"><rect width="6" height="6"></rect></g>
<g transform="translate(773.66666666667,311.66666666667) scale(3.7766666666667)"><rect width="6" height="6"></rect></g>
<g transform="translate(795.66666666667,311.66666666667) scale(3.7766666666667)"><rect width="6" height="6"></rect></g>
<g transform="translate(817.66666666667,311.66666666667) scale(3.7766666666667)"><rect width="6" height="6"></rect></g>
<g transform="translate(883.66666666667,311.66666666667) scale(3.7766666666667)"><rect width="6" height="6"></rect></g>
<g transform="translate(905.66666666667,311.66666666667) scale(3.7766666666667)"><rect width="6" height="6"></rect></g>
<g transform="translate(927.66666666667,311.66666666667) scale(3.7766666666667)"><rect width="6" height="6"></rect></g>
<g transform="translate(135.66666666667,333.66666666667) scale(3.7766666666667)"><rect width="6" height="6"></rect></g>
<g transform="translate(157.66666666667,333.66666666667) scale(3.7766666666667)"><rect width="6" height="6"></rect></g>
<g transform="translate(179.66666666667,333.66666666667) scale(3.7766666666667)"><rect width="6" height="6"></rect></g>
<g transform="translate(201.66666666667,333.66666666667) scale(3.7766666666667)"><rect width="6" height="6"></rect></g>
<g transform="translate(223.66666666667,333.66666666667) scale(3.7766666666667)"><rect width="6" height="6"></rect></g>
<g transform="translate(289.66666666667,333.66666666667) scale(3.7766666666667)"><rect width="6" height="6"></rect></g>
<g transform="translate(311.66666666667,333.66666666667) scale(3.7766666666667)"><rect width="6" height="6"></rect></g>
<g transform="translate(333.66666666667,333.66666666667) scale(3.7766666666667)"><rect width="6" height="6"></rect></g>
<g transform="translate(355.66666666667,333.66666666667) scale(3.7766666666667)"><rect width="6" height="6"></rect></g>
<g transform="translate(377.66666666667,333.66666666667) scale(3.7766666666667)"><rect width="6" height="6"></rect></g>
<g transform="translate(421.66666666667,333.66666666667) scale(3.7766666666667)"><rect width="6" height="6"></rect></g>
<g transform="translate(465.66666666667,333.66666666667) scale(3.7766666666667)"><rect width="6" height="6"></rect></g>
<g transform="translate(619.66666666667,333.66666666667) scale(3.7766666666667)"><rect width="6" height="6"></rect></g>
<g transform="translate(663.66666666667,333.66666666667) scale(3.7766666666667)"><rect width="6" height="6"></rect></g>
<g transform="translate(685.66666666667,333.66666666667) scale(3.7766666666667)"><rect width="6" height="6"></rect></g>
<g transform="translate(751.66666666667,333.66666666667) scale(3.7766666666667)"><rect width="6" height="6"></rect></g>
<g transform="translate(773.66666666667,333.66666666667) scale(3.7766666666667)"><rect width="6" height="6"></rect></g>
<g transform="translate(817.66666666667,333.66666666667) scale(3.7766666666667)"><rect width="6" height="6"></rect></g>
<g transform="translate(861.66666666667,333.66666666667) scale(3.7766666666667)"><rect width="6" height="6"></rect></g>
<g transform="translate(883.66666666667,333.66666666667) scale(3.7766666666667)"><rect width="6" height="6"></rect></g>
<g transform="translate(905.66666666667,333.66666666667) scale(3.7766666666667)"><rect width="6" height="6"></rect></g>
<g transform="translate(157.66666666667,355.66666666667) scale(3.7766666666667)"><rect width="6" height="6"></rect></g>
<g transform="translate(201.66666666667,355.66666666667) scale(3.7766666666667)"><rect width="6" height="6"></rect></g>
<g transform="translate(223.66666666667,355.66666666667) scale(3.7766666666667)"><rect width="6" height="6"></rect></g>
<g transform="translate(245.66666666667,355.66666666667) scale(3.7766666666667)"><rect width="6" height="6"></rect></g>
<g transform="translate(267.66666666667,355.66666666667) scale(3.7766666666667)"><rect width="6" height="6"></rect></g>
<g transform="translate(311.66666666667,355.66666666667) scale(3.7766666666667)"><rect width="6" height="6"></rect></g>
<g transform="translate(333.66666666667,355.66666666667) scale(3.7766666666667)"><rect width="6" height="6"></rect></g>
<g transform="translate(421.66666666667,355.66666666667) scale(3.7766666666667)"><rect width="6" height="6"></rect></g>
<g transform="translate(487.66666666667,355.66666666667) scale(3.7766666666667)"><rect width="6" height="6"></rect></g>
<g transform="translate(509.66666666667,355.66666666667) scale(3.7766666666667)"><rect width="6" height="6"></rect></g>
<g transform="translate(531.66666666667,355.66666666667) scale(3.7766666666667)"><rect width="6" height="6"></rect></g>
<g transform="translate(553.66666666667,355.66666666667) scale(3.7766666666667)"><rect width="6" height="6"></rect></g>
<g transform="translate(641.66666666667,355.66666666667) scale(3.7766666666667)"><rect width="6" height="6"></rect></g>
<g transform="translate(663.66666666667,355.66666666667) scale(3.7766666666667)"><rect width="6" height="6"></rect></g>
<g transform="translate(685.66666666667,355.66666666667) scale(3.7766666666667)"><rect width="6" height="6"></rect></g>
<g transform="translate(707.66666666667,355.66666666667) scale(3.7766666666667)"><rect width="6" height="6"></rect></g>
<g transform="translate(729.66666666667,355.66666666667) scale(3.7766666666667)"><rect width="6" height="6"></rect></g>
<g transform="translate(751.66666666667,355.66666666667) scale(3.7766666666667)"><rect width="6" height="6"></rect></g>
<g transform="translate(795.66666666667,355.66666666667) scale(3.7766666666667)"><rect width="6" height="6"></rect></g>
<g transform="translate(817.66666666667,355.66666666667) scale(3.7766666666667)"><rect width="6" height="6"></rect></g>
<g transform="translate(905.66666666667,355.66666666667) scale(3.7766666666667)"><rect width="6" height="6"></rect></g>
<g transform="translate(927.66666666667,355.66666666667) scale(3.7766666666667)"><rect width="6" height="6"></rect></g>
<g transform="translate(135.66666666667,377.66666666667) scale(3.7766666666667)"><rect width="6" height="6"></rect></g>
<g transform="translate(201.66666666667,377.66666666667) scale(3.7766666666667)"><rect width="6" height="6"></rect></g>
<g transform="translate(223.66666666667,377.66666666667) scale(3.7766666666667)"><rect width="6" height="6"></rect></g>
<g transform="translate(355.66666666667,377.66666666667) scale(3.7766666666667)"><rect width="6" height="6"></rect></g>
<g transform="translate(465.66666666667,377.66666666667) scale(3.7766666666667)"><rect width="6" height="6"></rect></g>
<g transform="translate(575.66666666667,377.66666666667) scale(3.7766666666667)"><rect width="6" height="6"></rect></g>
<g transform="translate(707.66666666667,377.66666666667) scale(3.7766666666667)"><rect width="6" height="6"></rect></g>
<g transform="translate(795.66666666667,377.66666666667) scale(3.7766666666667)"><rect width="6" height="6"></rect></g>
<g transform="translate(817.66666666667,377.66666666667) scale(3.7766666666667)"><rect width="6" height="6"></rect></g>
<g transform="translate(839.66666666667,377.66666666667) scale(3.7766666666667)"><rect width="6" height="6"></rect></g>
<g transform="translate(905.66666666667,377.66666666667) scale(3.7766666666667)"><rect width="6" height="6"></rect></g>
<g transform="translate(927.66666666667,377.66666666667) scale(3.7766666666667)"><rect width="6" height="6"></rect></g>
<g transform="translate(201.66666666667,399.66666666667) scale(3.7766666666667)"><rect width="6" height="6"></rect></g>
<g transform="translate(223.66666666667,399.66666666667) scale(3.7766666666667)"><rect width="6" height="6"></rect></g>
<g transform="translate(245.66666666667,399.66666666667) scale(3.7766666666667)"><rect width="6" height="6"></rect></g>
<g transform="translate(267.66666666667,399.66666666667) scale(3.7766666666667)"><rect width="6" height="6"></rect></g>
<g transform="translate(311.66666666667,399.66666666667) scale(3.7766666666667)"><rect width="6" height="6"></rect></g>
<g transform="translate(333.66666666667,399.66666666667) scale(3.7766666666667)"><rect width="6" height="6"></rect></g>
<g transform="translate(355.66666666667,399.66666666667) scale(3.7766666666667)"><rect width="6" height="6"></rect></g>
<g transform="translate(377.66666666667,399.66666666667) scale(3.7766666666667)"><rect width="6" height="6"></rect></g>
<g transform="translate(465.66666666667,399.66666666667) scale(3.7766666666667)"><rect width="6" height="6"></rect></g>
<g transform="translate(487.66666666667,399.66666666667) scale(3.7766666666667)"><rect width="6" height="6"></rect></g>
<g transform="translate(531.66666666667,399.66666666667) scale(3.7766666666667)"><rect width="6" height="6"></rect></g>
<g transform="translate(553.66666666667,399.66666666667) scale(3.7766666666667)"><rect width="6" height="6"></rect></g>
<g transform="translate(575.66666666667,399.66666666667) scale(3.7766666666667)"><rect width="6" height="6"></rect></g>
<g transform="translate(597.66666666667,399.66666666667) scale(3.7766666666667)"><rect width="6" height="6"></rect></g>
<g transform="translate(641.66666666667,399.66666666667) scale(3.7766666666667)"><rect width="6" height="6"></rect></g>
<g transform="translate(685.66666666667,399.66666666667) scale(3.7766666666667)"><rect width="6" height="6"></rect></g>
<g transform="translate(707.66666666667,399.66666666667) scale(3.7766666666667)"><rect width="6" height="6"></rect></g>
<g transform="translate(729.66666666667,399.66666666667) scale(3.7766666666667)"><rect width="6" height="6"></rect></g>
<g transform="translate(773.66666666667,399.66666666667) scale(3.7766666666667)"><rect width="6" height="6"></rect></g>
<g transform="translate(795.66666666667,399.66666666667) scale(3.7766666666667)"><rect width="6" height="6"></rect></g>
<g transform="translate(817.66666666667,399.66666666667) scale(3.7766666666667)"><rect width="6" height="6"></rect></g>
<g transform="translate(839.66666666667,399.66666666667) scale(3.7766666666667)"><rect width="6" height="6"></rect></g>
<g transform="translate(861.66666666667,399.66666666667) scale(3.7766666666667)"><rect width="6" height="6"></rect></g>
<g transform="translate(883.66666666667,399.66666666667) scale(3.7766666666667)"><rect width="6" height="6"></rect></g>
<g transform="translate(905.66666666667,399.66666666667) scale(3.7766666666667)"><rect width="6" height="6"></rect></g>
<g transform="translate(927.66666666667,399.66666666667) scale(3.7766666666667)"><rect width="6" height="6"></rect></g>
<g transform="translate(179.66666666667,421.66666666667) scale(3.7766666666667)"><rect width="6" height="6"></rect></g>
<g transform="translate(223.66666666667,421.66666666667) scale(3.7766666666667)"><rect width="6" height="6"></rect></g>
<g transform="translate(245.66666666667,421.66666666667) scale(3.7766666666667)"><rect width="6" height="6"></rect></g>
<g transform="translate(311.66666666667,421.66666666667) scale(3.7766666666667)"><rect width="6" height="6"></rect></g>
<g transform="translate(333.66666666667,421.66666666667) scale(3.7766666666667)"><rect width="6" height="6"></rect></g>
<g transform="translate(421.66666666667,421.66666666667) scale(3.7766666666667)"><rect width="6" height="6"></rect></g>
<g transform="translate(443.66666666667,421.66666666667) scale(3.7766666666667)"><rect width="6" height="6"></rect></g>
<g transform="translate(465.66666666667,421.66666666667) scale(3.7766666666667)"><rect width="6" height="6"></rect></g>
<g transform="translate(531.66666666667,421.66666666667) scale(3.7766666666667)"><rect width="6" height="6"></rect></g>
<g transform="translate(553.66666666667,421.66666666667) scale(3.7766666666667)"><rect width="6" height="6"></rect></g>
<g transform="translate(597.66666666667,421.66666666667) scale(3.7766666666667)"><rect width="6" height="6"></rect></g>
<g transform="translate(619.66666666667,421.66666666667) scale(3.7766666666667)"><rect width="6" height="6"></rect></g>
<g transform="translate(663.66666666667,421.66666666667) scale(3.7766666666667)"><rect width="6" height="6"></rect></g>
<g transform="translate(685.66666666667,421.66666666667) scale(3.7766666666667)"><rect width="6" height="6"></rect></g>
<g transform="translate(751.66666666667,421.66666666667) scale(3.7766666666667)"><rect width="6" height="6"></rect></g>
<g transform="translate(773.66666666667,421.66666666667) scale(3.7766666666667)"><rect width="6" height="6"></rect></g>
<g transform="translate(817.66666666667,421.66666666667) scale(3.7766666666667)"><rect width="6" height="6"></rect></g>
<g transform="translate(861.66666666667,421.66666666667) scale(3.7766666666667)"><rect width="6" height="6"></rect></g>
<g transform="translate(883.66666666667,421.66666666667) scale(3.7766666666667)"><rect width="6" height="6"></rect></g>
<g transform="translate(157.66666666667,443.66666666667) scale(3.7766666666667)"><rect width="6" height="6"></rect></g>
<g transform="translate(223.66666666667,443.66666666667) scale(3.7766666666667)"><rect width="6" height="6"></rect></g>
<g transform="translate(245.66666666667,443.66666666667) scale(3.7766666666667)"><rect width="6" height="6"></rect></g>
<g transform="translate(267.66666666667,443.66666666667) scale(3.7766666666667)"><rect width="6" height="6"></rect></g>
<g transform="translate(311.66666666667,443.66666666667) scale(3.7766666666667)"><rect width="6" height="6"></rect></g>
<g transform="translate(421.66666666667,443.66666666667) scale(3.7766666666667)"><rect width="6" height="6"></rect></g>
<g transform="translate(443.66666666667,443.66666666667) scale(3.7766666666667)"><rect width="6" height="6"></rect></g>
<g transform="translate(509.66666666667,443.66666666667) scale(3.7766666666667)"><rect width="6" height="6"></rect></g>
<g transform="translate(531.66666666667,443.66666666667) scale(3.7766666666667)"><rect width="6" height="6"></rect></g>
<g transform="translate(575.66666666667,443.66666666667) scale(3.7766666666667)"><rect width="6" height="6"></rect></g>
<g transform="translate(597.66666666667,443.66666666667) scale(3.7766666666667)"><rect width="6" height="6"></rect></g>
<g transform="translate(619.66666666667,443.66666666667) scale(3.7766666666667)"><rect width="6" height="6"></rect></g>
<g transform="translate(641.66666666667,443.66666666667) scale(3.7766666666667)"><rect width="6" height="6"></rect></g>
<g transform="translate(663.66666666667,443.66666666667) scale(3.7766666666667)"><rect width="6" height="6"></rect></g>
<g transform="translate(685.66666666667,443.66666666667) scale(3.7766666666667)"><rect width="6" height="6"></rect></g>
<g transform="translate(707.66666666667,443.66666666667) scale(3.7766666666667)"><rect width="6" height="6"></rect></g>
<g transform="translate(729.66666666667,443.66666666667) scale(3.7766666666667)"><rect width="6" height="6"></rect></g>
<g transform="translate(773.66666666667,443.66666666667) scale(3.7766666666667)"><rect width="6" height="6"></rect></g>
<g transform="translate(839.66666666667,443.66666666667) scale(3.7766666666667)"><rect width="6" height="6"></rect></g>
<g transform="translate(861.66666666667,443.66666666667) scale(3.7766666666667)"><rect width="6" height="6"></rect></g>
<g transform="translate(905.66666666667,443.66666666667) scale(3.7766666666667)"><rect width="6" height="6"></rect></g>
<g transform="translate(927.66666666667,443.66666666667) scale(3.7766666666667)"><rect width="6" height="6"></rect></g>
<g transform="translate(135.66666666667,465.66666666667) scale(3.7766666666667)"><rect width="6" height="6"></rect></g>
<g transform="translate(179.66666666667,465.66666666667) scale(3.7766666666667)"><rect width="6" height="6"></rect></g>
<g transform="translate(201.66666666667,465.66666666667) scale(3.7766666666667)"><rect width="6" height="6"></rect></g>
<g transform="translate(245.66666666667,465.66666666667) scale(3.7766666666667)"><rect width="6" height="6"></rect></g>
<g transform="translate(311.66666666667,465.66666666667) scale(3.7766666666667)"><rect width="6" height="6"></rect></g>
<g transform="translate(355.66666666667,465.66666666667) scale(3.7766666666667)"><rect width="6" height="6"></rect></g>
<g transform="translate(399.66666666667,465.66666666667) scale(3.7766666666667)"><rect width="6" height="6"></rect></g>
<g transform="translate(421.66666666667,465.66666666667) scale(3.7766666666667)"><rect width="6" height="6"></rect></g>
<g transform="translate(443.66666666667,465.66666666667) scale(3.7766666666667)"><rect width="6" height="6"></rect></g>
<g transform="translate(487.66666666667,465.66666666667) scale(3.7766666666667)"><rect width="6" height="6"></rect></g>
<g transform="translate(531.66666666667,465.66666666667) scale(3.7766666666667)"><rect width="6" height="6"></rect></g>
<g transform="translate(553.66666666667,465.66666666667) scale(3.7766666666667)"><rect width="6" height="6"></rect></g>
<g transform="translate(597.66666666667,465.66666666667) scale(3.7766666666667)"><rect width="6" height="6"></rect></g>
<g transform="translate(619.66666666667,465.66666666667) scale(3.7766666666667)"><rect width="6" height="6"></rect></g>
<g transform="translate(663.66666666667,465.66666666667) scale(3.7766666666667)"><rect width="6" height="6"></rect></g>
<g transform="translate(707.66666666667,465.66666666667) scale(3.7766666666667)"><rect width="6" height="6"></rect></g>
<g transform="translate(751.66666666667,465.66666666667) scale(3.7766666666667)"><rect width="6" height="6"></rect></g>
<g transform="translate(927.66666666667,465.66666666667) scale(3.7766666666667)"><rect width="6" height="6"></rect></g>
<g transform="translate(135.66666666667,487.66666666667) scale(3.7766666666667)"><rect width="6" height="6"></rect></g>
<g transform="translate(157.66666666667,487.66666666667) scale(3.7766666666667)"><rect width="6" height="6"></rect></g>
<g transform="translate(201.66666666667,487.66666666667) scale(3.7766666666667)"><rect width="6" height="6"></rect></g>
<g transform="translate(223.66666666667,487.66666666667) scale(3.7766666666667)"><rect width="6" height="6"></rect></g>
<g transform="translate(245.66666666667,487.66666666667) scale(3.7766666666667)"><rect width="6" height="6"></rect></g>
<g transform="translate(267.66666666667,487.66666666667) scale(3.7766666666667)"><rect width="6" height="6"></rect></g>
<g transform="translate(333.66666666667,487.66666666667) scale(3.7766666666667)"><rect width="6" height="6"></rect></g>
<g transform="translate(421.66666666667,487.66666666667) scale(3.7766666666667)"><rect width="6" height="6"></rect></g>
<g transform="translate(465.66666666667,487.66666666667) scale(3.7766666666667)"><rect width="6" height="6"></rect></g>
<g transform="translate(509.66666666667,487.66666666667) scale(3.7766666666667)"><rect width="6" height="6"></rect></g>
<g transform="translate(575.66666666667,487.66666666667) scale(3.7766666666667)"><rect width="6" height="6"></rect></g>
<g transform="translate(619.66666666667,487.66666666667) scale(3.7766666666667)"><rect width="6" height="6"></rect></g>
<g transform="translate(663.66666666667,487.66666666667) scale(3.7766666666667)"><rect width="6" height="6"></rect></g>
<g transform="translate(685.66666666667,487.66666666667) scale(3.7766666666667)"><rect width="6" height="6"></rect></g>
<g transform="translate(707.66666666667,487.66666666667) scale(3.7766666666667)"><rect width="6" height="6"></rect></g>
<g transform="translate(773.66666666667,487.66666666667) scale(3.7766666666667)"><rect width="6" height="6"></rect></g>
<g transform="translate(795.66666666667,487.66666666667) scale(3.7766666666667)"><rect width="6" height="6"></rect></g>
<g transform="translate(839.66666666667,487.66666666667) scale(3.7766666666667)"><rect width="6" height="6"></rect></g>
<g transform="translate(883.66666666667,487.66666666667) scale(3.7766666666667)"><rect width="6" height="6"></rect></g>
<g transform="translate(905.66666666667,487.66666666667) scale(3.7766666666667)"><rect width="6" height="6"></rect></g>
<g transform="translate(927.66666666667,487.66666666667) scale(3.7766666666667)"><rect width="6" height="6"></rect></g>
<g transform="translate(135.66666666667,509.66666666667) scale(3.7766666666667)"><rect width="6" height="6"></rect></g>
<g transform="translate(179.66666666667,509.66666666667) scale(3.7766666666667)"><rect width="6" height="6"></rect></g>
<g transform="translate(223.66666666667,509.66666666667) scale(3.7766666666667)"><rect width="6" height="6"></rect></g>
<g transform="translate(245.66666666667,509.66666666667) scale(3.7766666666667)"><rect width="6" height="6"></rect></g>
<g transform="translate(289.66666666667,509.66666666667) scale(3.7766666666667)"><rect width="6" height="6"></rect></g>
<g transform="translate(355.66666666667,509.66666666667) scale(3.7766666666667)"><rect width="6" height="6"></rect></g>
<g transform="translate(377.66666666667,509.66666666667) scale(3.7766666666667)"><rect width="6" height="6"></rect></g>
<g transform="translate(465.66666666667,509.66666666667) scale(3.7766666666667)"><rect width="6" height="6"></rect></g>
<g transform="translate(509.66666666667,509.66666666667) scale(3.7766666666667)"><rect width="6" height="6"></rect></g>
<g transform="translate(531.66666666667,509.66666666667) scale(3.7766666666667)"><rect width="6" height="6"></rect></g>
<g transform="translate(553.66666666667,509.66666666667) scale(3.7766666666667)"><rect width="6" height="6"></rect></g>
<g transform="translate(597.66666666667,509.66666666667) scale(3.7766666666667)"><rect width="6" height="6"></rect></g>
<g transform="translate(641.66666666667,509.66666666667) scale(3.7766666666667)"><rect width="6" height="6"></rect></g>
<g transform="translate(663.66666666667,509.66666666667) scale(3.7766666666667)"><rect width="6" height="6"></rect></g>
<g transform="translate(685.66666666667,509.66666666667) scale(3.7766666666667)"><rect width="6" height="6"></rect></g>
<g transform="translate(707.66666666667,509.66666666667) scale(3.7766666666667)"><rect width="6" height="6"></rect></g>
<g transform="translate(751.66666666667,509.66666666667) scale(3.7766666666667)"><rect width="6" height="6"></rect></g>
<g transform="translate(861.66666666667,509.66666666667) scale(3.7766666666667)"><rect width="6" height="6"></rect></g>
<g transform="translate(883.66666666667,509.66666666667) scale(3.7766666666667)"><rect width="6" height="6"></rect></g>
<g transform="translate(179.66666666667,531.66666666667) scale(3.7766666666667)"><rect width="6" height="6"></rect></g>
<g transform="translate(267.66666666667,531.66666666667) scale(3.7766666666667)"><rect width="6" height="6"></rect></g>
<g transform="translate(311.66666666667,531.66666666667) scale(3.7766666666667)"><rect width="6" height="6"></rect></g>
<g transform="translate(333.66666666667,531.66666666667) scale(3.7766666666667)"><rect width="6" height="6"></rect></g>
<g transform="translate(377.66666666667,531.66666666667) scale(3.7766666666667)"><rect width="6" height="6"></rect></g>
<g transform="translate(399.66666666667,531.66666666667) scale(3.7766666666667)"><rect width="6" height="6"></rect></g>
<g transform="translate(421.66666666667,531.66666666667) scale(3.7766666666667)"><rect width="6" height="6"></rect></g>
<g transform="translate(509.66666666667,531.66666666667) scale(3.7766666666667)"><rect width="6" height="6"></rect></g>
<g transform="translate(531.66666666667,531.66666666667) scale(3.7766666666667)"><rect width="6" height="6"></rect></g>
<g transform="translate(553.66666666667,531.66666666667) scale(3.7766666666667)"><rect width="6" height="6"></rect></g>
<g transform="translate(575.66666666667,531.66666666667) scale(3.7766666666667)"><rect width="6" height="6"></rect></g>
<g transform="translate(619.66666666667,531.66666666667) scale(3.7766666666667)"><rect width="6" height="6"></rect></g>
<g transform="translate(663.66666666667,531.66666666667) scale(3.7766666666667)"><rect width="6" height="6"></rect></g>
<g transform="translate(685.66666666667,531.66666666667) scale(3.7766666666667)"><rect width="6" height="6"></rect></g>
<g transform="translate(729.66666666667,531.66666666667) scale(3.7766666666667)"><rect width="6" height="6"></rect></g>
<g transform="translate(751.66666666667,531.66666666667) scale(3.7766666666667)"><rect width="6" height="6"></rect></g>
<g transform="translate(773.66666666667,531.66666666667) scale(3.7766666666667)"><rect width="6" height="6"></rect></g>
<g transform="translate(795.66666666667,531.66666666667) scale(3.7766666666667)"><rect width="6" height="6"></rect></g>
<g transform="translate(839.66666666667,531.66666666667) scale(3.7766666666667)"><rect width="6" height="6"></rect></g>
<g transform="translate(861.66666666667,531.66666666667) scale(3.7766666666667)"><rect width="6" height="6"></rect></g>
<g transform="translate(905.66666666667,531.66666666667) scale(3.7766666666667)"><rect width="6" height="6"></rect></g>
<g transform="translate(927.66666666667,531.66666666667) scale(3.7766666666667)"><rect width="6" height="6"></rect></g>
<g transform="translate(135.66666666667,553.66666666667) scale(3.7766666666667)"><rect width="6" height="6"></rect></g>
<g transform="translate(157.66666666667,553.66666666667) scale(3.7766666666667)"><rect width="6" height="6"></rect></g>
<g transform="translate(179.66666666667,553.66666666667) scale(3.7766666666667)"><rect width="6" height="6"></rect></g>
<g transform="translate(201.66666666667,553.66666666667) scale(3.7766666666667)"><rect width="6" height="6"></rect></g>
<g transform="translate(245.66666666667,553.66666666667) scale(3.7766666666667)"><rect width="6" height="6"></rect></g>
<g transform="translate(311.66666666667,553.66666666667) scale(3.7766666666667)"><rect width="6" height="6"></rect></g>
<g transform="translate(355.66666666667,553.66666666667) scale(3.7766666666667)"><rect width="6" height="6"></rect></g>
<g transform="translate(377.66666666667,553.66666666667) scale(3.7766666666667)"><rect width="6" height="6"></rect></g>
<g transform="translate(421.66666666667,553.66666666667) scale(3.7766666666667)"><rect width="6" height="6"></rect></g>
<g transform="translate(443.66666666667,553.66666666667) scale(3.7766666666667)"><rect width="6" height="6"></rect></g>
<g transform="translate(465.66666666667,553.66666666667) scale(3.7766666666667)"><rect width="6" height="6"></rect></g>
<g transform="translate(487.66666666667,553.66666666667) scale(3.7766666666667)"><rect width="6" height="6"></rect></g>
<g transform="translate(575.66666666667,553.66666666667) scale(3.7766666666667)"><rect width="6" height="6"></rect></g>
<g transform="translate(597.66666666667,553.66666666667) scale(3.7766666666667)"><rect width="6" height="6"></rect></g>
<g transform="translate(619.66666666667,553.66666666667) scale(3.7766666666667)"><rect width="6" height="6"></rect></g>
<g transform="translate(707.66666666667,553.66666666667) scale(3.7766666666667)"><rect width="6" height="6"></rect></g>
<g transform="translate(751.66666666667,553.66666666667) scale(3.7766666666667)"><rect width="6" height="6"></rect></g>
<g transform="translate(927.66666666667,553.66666666667) scale(3.7766666666667)"><rect width="6" height="6"></rect></g>
<g transform="translate(135.66666666667,575.66666666667) scale(3.7766666666667)"><rect width="6" height="6"></rect></g>
<g transform="translate(201.66666666667,575.66666666667) scale(3.7766666666667)"><rect width="6" height="6"></rect></g>
<g transform="translate(223.66666666667,575.66666666667) scale(3.7766666666667)"><rect width="6" height="6"></rect></g>
<g transform="translate(267.66666666667,575.66666666667) scale(3.7766666666667)"><rect width="6" height="6"></rect></g>
<g transform="translate(289.66666666667,575.66666666667) scale(3.7766666666667)"><rect width="6" height="6"></rect></g>
<g transform="translate(311.66666666667,575.66666666667) scale(3.7766666666667)"><rect width="6" height="6"></rect></g>
<g transform="translate(333.66666666667,575.66666666667) scale(3.7766666666667)"><rect width="6" height="6"></rect></g>
<g transform="translate(355.66666666667,575.66666666667) scale(3.7766666666667)"><rect width="6" height="6"></rect></g>
<g transform="translate(377.66666666667,575.66666666667) scale(3.7766666666667)"><rect width="6" height="6"></rect></g>
<g transform="translate(421.66666666667,575.66666666667) scale(3.7766666666667)"><rect width="6" height="6"></rect></g>
<g transform="translate(443.66666666667,575.66666666667) scale(3.7766666666667)"><rect width="6" height="6"></rect></g>
<g transform="translate(487.66666666667,575.66666666667) scale(3.7766666666667)"><rect width="6" height="6"></rect></g>
<g transform="translate(509.66666666667,575.66666666667) scale(3.7766666666667)"><rect width="6" height="6"></rect></g>
<g transform="translate(553.66666666667,575.66666666667) scale(3.7766666666667)"><rect width="6" height="6"></rect></g>
<g transform="translate(575.66666666667,575.66666666667) scale(3.7766666666667)"><rect width="6" height="6"></rect></g>
<g transform="translate(641.66666666667,575.66666666667) scale(3.7766666666667)"><rect width="6" height="6"></rect></g>
<g transform="translate(663.66666666667,575.66666666667) scale(3.7766666666667)"><rect width="6" height="6"></rect></g>
<g transform="translate(685.66666666667,575.66666666667) scale(3.7766666666667)"><rect width="6" height="6"></rect></g>
<g transform="translate(707.66666666667,575.66666666667) scale(3.7766666666667)"><rect width="6" height="6"></rect></g>
<g transform="translate(773.66666666667,575.66666666667) scale(3.7766666666667)"><rect width="6" height="6"></rect></g>
<g transform="translate(795.66666666667,575.66666666667) scale(3.7766666666667)"><rect width="6" height="6"></rect></g>
<g transform="translate(817.66666666667,575.66666666667) scale(3.7766666666667)"><rect width="6" height="6"></rect></g>
<g transform="translate(839.66666666667,575.66666666667) scale(3.7766666666667)"><rect width="6" height="6"></rect></g>
<g transform="translate(883.66666666667,575.66666666667) scale(3.7766666666667)"><rect width="6" height="6"></rect></g>
<g transform="translate(905.66666666667,575.66666666667) scale(3.7766666666667)"><rect width="6" height="6"></rect></g>
<g transform="translate(157.66666666667,597.66666666667) scale(3.7766666666667)"><rect width="6" height="6"></rect></g>
<g transform="translate(201.66666666667,597.66666666667) scale(3.7766666666667)"><rect width="6" height="6"></rect></g>
<g transform="translate(333.66666666667,597.66666666667) scale(3.7766666666667)"><rect width="6" height="6"></rect></g>
<g transform="translate(421.66666666667,597.66666666667) scale(3.7766666666667)"><rect width="6" height="6"></rect></g>
<g transform="translate(531.66666666667,597.66666666667) scale(3.7766666666667)"><rect width="6" height="6"></rect></g>
<g transform="translate(553.66666666667,597.66666666667) scale(3.7766666666667)"><rect width="6" height="6"></rect></g>
<g transform="translate(597.66666666667,597.66666666667) scale(3.7766666666667)"><rect width="6" height="6"></rect></g>
<g transform="translate(685.66666666667,597.66666666667) scale(3.7766666666667)"><rect width="6" height="6"></rect></g>
<g transform="translate(817.66666666667,597.66666666667) scale(3.7766666666667)"><rect width="6" height="6"></rect></g>
<g transform="translate(157.66666666667,619.66666666667) scale(3.7766666666667)"><rect width="6" height="6"></rect></g>
<g transform="translate(267.66666666667,619.66666666667) scale(3.7766666666667)"><rect width="6" height="6"></rect></g>
<g transform="translate(289.66666666667,619.66666666667) scale(3.7766666666667)"><rect width="6" height="6"></rect></g>
<g transform="translate(333.66666666667,619.66666666667) scale(3.7766666666667)"><rect width="6" height="6"></rect></g>
<g transform="translate(355.66666666667,619.66666666667) scale(3.7766666666667)"><rect width="6" height="6"></rect></g>
<g transform="translate(377.66666666667,619.66666666667) scale(3.7766666666667)"><rect width="6" height="6"></rect></g>
<g transform="translate(399.66666666667,619.66666666667) scale(3.7766666666667)"><rect width="6" height="6"></rect></g>
<g transform="translate(443.66666666667,619.66666666667) scale(3.7766666666667)"><rect width="6" height="6"></rect></g>
<g transform="translate(641.66666666667,619.66666666667) scale(3.7766666666667)"><rect width="6" height="6"></rect></g>
<g transform="translate(729.66666666667,619.66666666667) scale(3.7766666666667)"><rect width="6" height="6"></rect></g>
<g transform="translate(773.66666666667,619.66666666667) scale(3.7766666666667)"><rect width="6" height="6"></rect></g>
<g transform="translate(795.66666666667,619.66666666667) scale(3.7766666666667)"><rect width="6" height="6"></rect></g>
<g transform="translate(861.66666666667,619.66666666667) scale(3.7766666666667)"><rect width="6" height="6"></rect></g>
<g transform="translate(905.66666666667,619.66666666667) scale(3.7766666666667)"><rect width="6" height="6"></rect></g>
<g transform="translate(927.66666666667,619.66666666667) scale(3.7766666666667)"><rect width="6" height="6"></rect></g>
<g transform="translate(135.66666666667,641.66666666667) scale(3.7766666666667)"><rect width="6" height="6"></rect></g>
<g transform="translate(157.66666666667,641.66666666667) scale(3.7766666666667)"><rect width="6" height="6"></rect></g>
<g transform="translate(201.66666666667,641.66666666667) scale(3.7766666666667)"><rect width="6" height="6"></rect></g>
<g transform="translate(223.66666666667,641.66666666667) scale(3.7766666666667)"><rect width="6" height="6"></rect></g>
<g transform="translate(245.66666666667,641.66666666667) scale(3.7766666666667)"><rect width="6" height="6"></rect></g>
<g transform="translate(311.66666666667,641.66666666667) scale(3.7766666666667)"><rect width="6" height="6"></rect></g>
<g transform="translate(333.66666666667,641.66666666667) scale(3.7766666666667)"><rect width="6" height="6"></rect></g>
<g transform="translate(377.66666666667,641.66666666667) scale(3.7766666666667)"><rect width="6" height="6"></rect></g>
<g transform="translate(443.66666666667,641.66666666667) scale(3.7766666666667)"><rect width="6" height="6"></rect></g>
<g transform="translate(487.66666666667,641.66666666667) scale(3.7766666666667)"><rect width="6" height="6"></rect></g>
<g transform="translate(553.66666666667,641.66666666667) scale(3.7766666666667)"><rect width="6" height="6"></rect></g>
<g transform="translate(663.66666666667,641.66666666667) scale(3.7766666666667)"><rect width="6" height="6"></rect></g>
<g transform="translate(707.66666666667,641.66666666667) scale(3.7766666666667)"><rect width="6" height="6"></rect></g>
<g transform="translate(795.66666666667,641.66666666667) scale(3.7766666666667)"><rect width="6" height="6"></rect></g>
<g transform="translate(817.66666666667,641.66666666667) scale(3.7766666666667)"><rect width="6" height="6"></rect></g>
<g transform="translate(905.66666666667,641.66666666667) scale(3.7766666666667)"><rect width="6" height="6"></rect></g>
<g transform="translate(135.66666666667,663.66666666667) scale(3.7766666666667)"><rect width="6" height="6"></rect></g>
<g transform="translate(157.66666666667,663.66666666667) scale(3.7766666666667)"><rect width="6" height="6"></rect></g>
<g transform="translate(201.66666666667,663.66666666667) scale(3.7766666666667)"><rect width="6" height="6"></rect></g>
<g transform="translate(245.66666666667,663.66666666667) scale(3.7766666666667)"><rect width="6" height="6"></rect></g>
<g transform="translate(267.66666666667,663.66666666667) scale(3.7766666666667)"><rect width="6" height="6"></rect></g>
<g transform="translate(289.66666666667,663.66666666667) scale(3.7766666666667)"><rect width="6" height="6"></rect></g>
<g transform="translate(333.66666666667,663.66666666667) scale(3.7766666666667)"><rect width="6" height="6"></rect></g>
<g transform="translate(377.66666666667,663.66666666667) scale(3.7766666666667)"><rect width="6" height="6"></rect></g>
<g transform="translate(399.66666666667,663.66666666667) scale(3.7766666666667)"><rect width="6" height="6"></rect></g>
<g transform="translate(421.66666666667,663.66666666667) scale(3.7766666666667)"><rect width="6" height="6"></rect></g>
<g transform="translate(443.66666666667,663.66666666667) scale(3.7766666666667)"><rect width="6" height="6"></rect></g>
<g transform="translate(465.66666666667,663.66666666667) scale(3.7766666666667)"><rect width="6" height="6"></rect></g>
<g transform="translate(487.66666666667,663.66666666667) scale(3.7766666666667)"><rect width="6" height="6"></rect></g>
<g transform="translate(575.66666666667,663.66666666667) scale(3.7766666666667)"><rect width="6" height="6"></rect></g>
<g transform="translate(641.66666666667,663.66666666667) scale(3.7766666666667)"><rect width="6" height="6"></rect></g>
<g transform="translate(663.66666666667,663.66666666667) scale(3.7766666666667)"><rect width="6" height="6"></rect></g>
<g transform="translate(685.66666666667,663.66666666667) scale(3.7766666666667)"><rect width="6" height="6"></rect></g>
<g transform="translate(707.66666666667,663.66666666667) scale(3.7766666666667)"><rect width="6" height="6"></rect></g>
<g transform="translate(751.66666666667,663.66666666667) scale(3.7766666666667)"><rect width="6" height="6"></rect></g>
<g transform="translate(773.66666666667,663.66666666667) scale(3.7766666666667)"><rect width="6" height="6"></rect></g>
<g transform="translate(795.66666666667,663.66666666667) scale(3.7766666666667)"><rect width="6" height="6"></rect></g>
<g transform="translate(839.66666666667,663.66666666667) scale(3.7766666666667)"><rect width="6" height="6"></rect></g>
<g transform="translate(861.66666666667,663.66666666667) scale(3.7766666666667)"><rect width="6" height="6"></rect></g>
<g transform="translate(883.66666666667,663.66666666667) scale(3.7766666666667)"><rect width="6" height="6"></rect></g>
<g transform="translate(905.66666666667,663.66666666667) scale(3.7766666666667)"><rect width="6" height="6"></rect></g>
<g transform="translate(135.66666666667,685.66666666667) scale(3.7766666666667)"><rect width="6" height="6"></rect></g>
<g transform="translate(157.66666666667,685.66666666667) scale(3.7766666666667)"><rect width="6" height="6"></rect></g>
<g transform="translate(179.66666666667,685.66666666667) scale(3.7766666666667)"><rect width="6" height="6"></rect></g>
<g transform="translate(201.66666666667,685.66666666667) scale(3.7766666666667)"><rect width="6" height="6"></rect></g>
<g transform="translate(245.66666666667,685.66666666667) scale(3.7766666666667)"><rect width="6" height="6"></rect></g>
<g transform="translate(333.66666666667,685.66666666667) scale(3.7766666666667)"><rect width="6" height="6"></rect></g>
<g transform="translate(377.66666666667,685.66666666667) scale(3.7766666666667)"><rect width="6" height="6"></rect></g>
<g transform="translate(399.66666666667,685.66666666667) scale(3.7766666666667)"><rect width="6" height="6"></rect></g>
<g transform="translate(443.66666666667,685.66666666667) scale(3.7766666666667)"><rect width="6" height="6"></rect></g>
<g transform="translate(487.66666666667,685.66666666667) scale(3.7766666666667)"><rect width="6" height="6"></rect></g>
<g transform="translate(531.66666666667,685.66666666667) scale(3.7766666666667)"><rect width="6" height="6"></rect></g>
<g transform="translate(597.66666666667,685.66666666667) scale(3.7766666666667)"><rect width="6" height="6"></rect></g>
<g transform="translate(619.66666666667,685.66666666667) scale(3.7766666666667)"><rect width="6" height="6"></rect></g>
<g transform="translate(663.66666666667,685.66666666667) scale(3.7766666666667)"><rect width="6" height="6"></rect></g>
<g transform="translate(751.66666666667,685.66666666667) scale(3.7766666666667)"><rect width="6" height="6"></rect></g>
<g transform="translate(861.66666666667,685.66666666667) scale(3.7766666666667)"><rect width="6" height="6"></rect></g>
<g transform="translate(135.66666666667,707.66666666667) scale(3.7766666666667)"><rect width="6" height="6"></rect></g>
<g transform="translate(245.66666666667,707.66666666667) scale(3.7766666666667)"><rect width="6" height="6"></rect></g>
<g transform="translate(267.66666666667,707.66666666667) scale(3.7766666666667)"><rect width="6" height="6"></rect></g>
<g transform="translate(311.66666666667,707.66666666667) scale(3.7766666666667)"><rect width="6" height="6"></rect></g>
<g transform="translate(333.66666666667,707.66666666667) scale(3.7766666666667)"><rect width="6" height="6"></rect></g>
<g transform="translate(377.66666666667,707.66666666667) scale(3.7766666666667)"><rect width="6" height="6"></rect></g>
<g transform="translate(421.66666666667,707.66666666667) scale(3.7766666666667)"><rect width="6" height="6"></rect></g>
<g transform="translate(619.66666666667,707.66666666667) scale(3.7766666666667)"><rect width="6" height="6"></rect></g>
<g transform="translate(685.66666666667,707.66666666667) scale(3.7766666666667)"><rect width="6" height="6"></rect></g>
<g transform="translate(707.66666666667,707.66666666667) scale(3.7766666666667)"><rect width="6" height="6"></rect></g>
<g transform="translate(729.66666666667,707.66666666667) scale(3.7766666666667)"><rect width="6" height="6"></rect></g>
<g transform="translate(751.66666666667,707.66666666667) scale(3.7766666666667)"><rect width="6" height="6"></rect></g>
<g transform="translate(795.66666666667,707.66666666667) scale(3.7766666666667)"><rect width="6" height="6"></rect></g>
<g transform="translate(817.66666666667,707.66666666667) scale(3.7766666666667)"><rect width="6" height="6"></rect></g>
<g transform="translate(839.66666666667,707.66666666667) scale(3.7766666666667)"><rect width="6" height="6"></rect></g>
<g transform="translate(905.66666666667,707.66666666667) scale(3.7766666666667)"><rect width="6" height="6"></rect></g>
<g transform="translate(927.66666666667,707.66666666667) scale(3.7766666666667)"><rect width="6" height="6"></rect></g>
<g transform="translate(135.66666666667,729.66666666667) scale(3.7766666666667)"><rect width="6" height="6"></rect></g>
<g transform="translate(223.66666666667,729.66666666667) scale(3.7766666666667)"><rect width="6" height="6"></rect></g>
<g transform="translate(333.66666666667,729.66666666667) scale(3.7766666666667)"><rect width="6" height="6"></rect></g>
<g transform="translate(399.66666666667,729.66666666667) scale(3.7766666666667)"><rect width="6" height="6"></rect></g>
<g transform="translate(443.66666666667,729.66666666667) scale(3.7766666666667)"><rect width="6" height="6"></rect></g>
<g transform="translate(465.66666666667,729.66666666667) scale(3.7766666666667)"><rect width="6" height="6"></rect></g>
<g transform="translate(487.66666666667,729.66666666667) scale(3.7766666666667)"><rect width="6" height="6"></rect></g>
<g transform="translate(553.66666666667,729.66666666667) scale(3.7766666666667)"><rect width="6" height="6"></rect></g>
<g transform="translate(575.66666666667,729.66666666667) scale(3.7766666666667)"><rect width="6" height="6"></rect></g>
<g transform="translate(619.66666666667,729.66666666667) scale(3.7766666666667)"><rect width="6" height="6"></rect></g>
<g transform="translate(641.66666666667,729.66666666667) scale(3.7766666666667)"><rect width="6" height="6"></rect></g>
<g transform="translate(707.66666666667,729.66666666667) scale(3.7766666666667)"><rect width="6" height="6"></rect></g>
<g transform="translate(729.66666666667,729.66666666667) scale(3.7766666666667)"><rect width="6" height="6"></rect></g>
<g transform="translate(751.66666666667,729.66666666667) scale(3.7766666666667)"><rect width="6" height="6"></rect></g>
<g transform="translate(773.66666666667,729.66666666667) scale(3.7766666666667)"><rect width="6" height="6"></rect></g>
<g transform="translate(905.66666666667,729.66666666667) scale(3.7766666666667)"><rect width="6" height="6"></rect></g>
<g transform="translate(927.66666666667,729.66666666667) scale(3.7766666666667)"><rect width="6" height="6"></rect></g>
<g transform="translate(135.66666666667,751.66666666667) scale(3.7766666666667)"><rect width="6" height="6"></rect></g>
<g transform="translate(267.66666666667,751.66666666667) scale(3.7766666666667)"><rect width="6" height="6"></rect></g>
<g transform="translate(289.66666666667,751.66666666667) scale(3.7766666666667)"><rect width="6" height="6"></rect></g>
<g transform="translate(311.66666666667,751.66666666667) scale(3.7766666666667)"><rect width="6" height="6"></rect></g>
<g transform="translate(333.66666666667,751.66666666667) scale(3.7766666666667)"><rect width="6" height="6"></rect></g>
<g transform="translate(355.66666666667,751.66666666667) scale(3.7766666666667)"><rect width="6" height="6"></rect></g>
<g transform="translate(377.66666666667,751.66666666667) scale(3.7766666666667)"><rect width="6" height="6"></rect></g>
<g transform="translate(399.66666666667,751.66666666667) scale(3.7766666666667)"><rect width="6" height="6"></rect></g>
<g transform="translate(421.66666666667,751.66666666667) scale(3.7766666666667)"><rect width="6" height="6"></rect></g>
<g transform="translate(443.66666666667,751.66666666667) scale(3.7766666666667)"><rect width="6" height="6"></rect></g>
<g transform="translate(465.66666666667,751.66666666667) scale(3.7766666666667)"><rect width="6" height="6"></rect></g>
<g transform="translate(531.66666666667,751.66666666667) scale(3.7766666666667)"><rect width="6" height="6"></rect></g>
<g transform="translate(553.66666666667,751.66666666667) scale(3.7766666666667)"><rect width="6" height="6"></rect></g>
<g transform="translate(575.66666666667,751.66666666667) scale(3.7766666666667)"><rect width="6" height="6"></rect></g>
<g transform="translate(663.66666666667,751.66666666667) scale(3.7766666666667)"><rect width="6" height="6"></rect></g>
<g transform="translate(685.66666666667,751.66666666667) scale(3.7766666666667)"><rect width="6" height="6"></rect></g>
<g transform="translate(707.66666666667,751.66666666667) scale(3.7766666666667)"><rect width="6" height="6"></rect></g>
<g transform="translate(729.66666666667,751.66666666667) scale(3.7766666666667)"><rect width="6" height="6"></rect></g>
<g transform="translate(751.66666666667,751.66666666667) scale(3.7766666666667)"><rect width="6" height="6"></rect></g>
<g transform="translate(773.66666666667,751.66666666667) scale(3.7766666666667)"><rect width="6" height="6"></rect></g>
<g transform="translate(795.66666666667,751.66666666667) scale(3.7766666666667)"><rect width="6" height="6"></rect></g>
<g transform="translate(817.66666666667,751.66666666667) scale(3.7766666666667)"><rect width="6" height="6"></rect></g>
<g transform="translate(839.66666666667,751.66666666667) scale(3.7766666666667)"><rect width="6" height="6"></rect></g>
<g transform="translate(861.66666666667,751.66666666667) scale(3.7766666666667)"><rect width="6" height="6"></rect></g>
<g transform="translate(883.66666666667,751.66666666667) scale(3.7766666666667)"><rect width="6" height="6"></rect></g>
<g transform="translate(311.66666666667,773.66666666667) scale(3.7766666666667)"><rect width="6" height="6"></rect></g>
<g transform="translate(333.66666666667,773.66666666667) scale(3.7766666666667)"><rect width="6" height="6"></rect></g>
<g transform="translate(355.66666666667,773.66666666667) scale(3.7766666666667)"><rect width="6" height="6"></rect></g>
<g transform="translate(377.66666666667,773.66666666667) scale(3.7766666666667)"><rect width="6" height="6"></rect></g>
<g transform="translate(399.66666666667,773.66666666667) scale(3.7766666666667)"><rect width="6" height="6"></rect></g>
<g transform="translate(443.66666666667,773.66666666667) scale(3.7766666666667)"><rect width="6" height="6"></rect></g>
<g transform="translate(465.66666666667,773.66666666667) scale(3.7766666666667)"><rect width="6" height="6"></rect></g>
<g transform="translate(487.66666666667,773.66666666667) scale(3.7766666666667)"><rect width="6" height="6"></rect></g>
<g transform="translate(509.66666666667,773.66666666667) scale(3.7766666666667)"><rect width="6" height="6"></rect></g>
<g transform="translate(531.66666666667,773.66666666667) scale(3.7766666666667)"><rect width="6" height="6"></rect></g>
<g transform="translate(575.66666666667,773.66666666667) scale(3.7766666666667)"><rect width="6" height="6"></rect></g>
<g transform="translate(641.66666666667,773.66666666667) scale(3.7766666666667)"><rect width="6" height="6"></rect></g>
<g transform="translate(663.66666666667,773.66666666667) scale(3.7766666666667)"><rect width="6" height="6"></rect></g>
<g transform="translate(729.66666666667,773.66666666667) scale(3.7766666666667)"><rect width="6" height="6"></rect></g>
<g transform="translate(751.66666666667,773.66666666667) scale(3.7766666666667)"><rect width="6" height="6"></rect></g>
<g transform="translate(839.66666666667,773.66666666667) scale(3.7766666666667)"><rect width="6" height="6"></rect></g>
<g transform="translate(905.66666666667,773.66666666667) scale(3.7766666666667)"><rect width="6" height="6"></rect></g>
<g transform="translate(333.66666666667,795.66666666667) scale(3.7766666666667)"><rect width="6" height="6"></rect></g>
<g transform="translate(399.66666666667,795.66666666667) scale(3.7766666666667)"><rect width="6" height="6"></rect></g>
<g transform="translate(421.66666666667,795.66666666667) scale(3.7766666666667)"><rect width="6" height="6"></rect></g>
<g transform="translate(465.66666666667,795.66666666667) scale(3.7766666666667)"><rect width="6" height="6"></rect></g>
<g transform="translate(553.66666666667,795.66666666667) scale(3.7766666666667)"><rect width="6" height="6"></rect></g>
<g transform="translate(575.66666666667,795.66666666667) scale(3.7766666666667)"><rect width="6" height="6"></rect></g>
<g transform="translate(597.66666666667,795.66666666667) scale(3.7766666666667)"><rect width="6" height="6"></rect></g>
<g transform="translate(663.66666666667,795.66666666667) scale(3.7766666666667)"><rect width="6" height="6"></rect></g>
<g transform="translate(751.66666666667,795.66666666667) scale(3.7766666666667)"><rect width="6" height="6"></rect></g>
<g transform="translate(795.66666666667,795.66666666667) scale(3.7766666666667)"><rect width="6" height="6"></rect></g>
<g transform="translate(839.66666666667,795.66666666667) scale(3.7766666666667)"><rect width="6" height="6"></rect></g>
<g transform="translate(861.66666666667,795.66666666667) scale(3.7766666666667)"><rect width="6" height="6"></rect></g>
<g transform="translate(905.66666666667,795.66666666667) scale(3.7766666666667)"><rect width="6" height="6"></rect></g>
<g transform="translate(927.66666666667,795.66666666667) scale(3.7766666666667)"><rect width="6" height="6"></rect></g>
<g transform="translate(355.66666666667,817.66666666667) scale(3.7766666666667)"><rect width="6" height="6"></rect></g>
<g transform="translate(377.66666666667,817.66666666667) scale(3.7766666666667)"><rect width="6" height="6"></rect></g>
<g transform="translate(443.66666666667,817.66666666667) scale(3.7766666666667)"><rect width="6" height="6"></rect></g>
<g transform="translate(465.66666666667,817.66666666667) scale(3.7766666666667)"><rect width="6" height="6"></rect></g>
<g transform="translate(509.66666666667,817.66666666667) scale(3.7766666666667)"><rect width="6" height="6"></rect></g>
<g transform="translate(531.66666666667,817.66666666667) scale(3.7766666666667)"><rect width="6" height="6"></rect></g>
<g transform="translate(553.66666666667,817.66666666667) scale(3.7766666666667)"><rect width="6" height="6"></rect></g>
<g transform="translate(575.66666666667,817.66666666667) scale(3.7766666666667)"><rect width="6" height="6"></rect></g>
<g transform="translate(597.66666666667,817.66666666667) scale(3.7766666666667)"><rect width="6" height="6"></rect></g>
<g transform="translate(641.66666666667,817.66666666667) scale(3.7766666666667)"><rect width="6" height="6"></rect></g>
<g transform="translate(751.66666666667,817.66666666667) scale(3.7766666666667)"><rect width="6" height="6"></rect></g>
<g transform="translate(839.66666666667,817.66666666667) scale(3.7766666666667)"><rect width="6" height="6"></rect></g>
<g transform="translate(905.66666666667,817.66666666667) scale(3.7766666666667)"><rect width="6" height="6"></rect></g>
<g transform="translate(927.66666666667,817.66666666667) scale(3.7766666666667)"><rect width="6" height="6"></rect></g>
<g transform="translate(311.66666666667,839.66666666667) scale(3.7766666666667)"><rect width="6" height="6"></rect></g>
<g transform="translate(333.66666666667,839.66666666667) scale(3.7766666666667)"><rect width="6" height="6"></rect></g>
<g transform="translate(355.66666666667,839.66666666667) scale(3.7766666666667)"><rect width="6" height="6"></rect></g>
<g transform="translate(421.66666666667,839.66666666667) scale(3.7766666666667)"><rect width="6" height="6"></rect></g>
<g transform="translate(443.66666666667,839.66666666667) scale(3.7766666666667)"><rect width="6" height="6"></rect></g>
<g transform="translate(553.66666666667,839.66666666667) scale(3.7766666666667)"><rect width="6" height="6"></rect></g>
<g transform="translate(597.66666666667,839.66666666667) scale(3.7766666666667)"><rect width="6" height="6"></rect></g>
<g transform="translate(641.66666666667,839.66666666667) scale(3.7766666666667)"><rect width="6" height="6"></rect></g>
<g transform="translate(663.66666666667,839.66666666667) scale(3.7766666666667)"><rect width="6" height="6"></rect></g>
<g transform="translate(685.66666666667,839.66666666667) scale(3.7766666666667)"><rect width="6" height="6"></rect></g>
<g transform="translate(707.66666666667,839.66666666667) scale(3.7766666666667)"><rect width="6" height="6"></rect></g>
<g transform="translate(729.66666666667,839.66666666667) scale(3.7766666666667)"><rect width="6" height="6"></rect></g>
<g transform="translate(751.66666666667,839.66666666667) scale(3.7766666666667)"><rect width="6" height="6"></rect></g>
<g transform="translate(773.66666666667,839.66666666667) scale(3.7766666666667)"><rect width="6" height="6"></rect></g>
<g transform="translate(795.66666666667,839.66666666667) scale(3.7766666666667)"><rect width="6" height="6"></rect></g>
<g transform="translate(817.66666666667,839.66666666667) scale(3.7766666666667)"><rect width="6" height="6"></rect></g>
<g transform="translate(839.66666666667,839.66666666667) scale(3.7766666666667)"><rect width="6" height="6"></rect></g>
<g transform="translate(883.66666666667,839.66666666667) scale(3.7766666666667)"><rect width="6" height="6"></rect></g>
<g transform="translate(311.66666666667,861.66666666667) scale(3.7766666666667)"><rect width="6" height="6"></rect></g>
<g transform="translate(377.66666666667,861.66666666667) scale(3.7766666666667)"><rect width="6" height="6"></rect></g>
<g transform="translate(421.66666666667,861.66666666667) scale(3.7766666666667)"><rect width="6" height="6"></rect></g>
<g transform="translate(509.66666666667,861.66666666667) scale(3.7766666666667)"><rect width="6" height="6"></rect></g>
<g transform="translate(531.66666666667,861.66666666667) scale(3.7766666666667)"><rect width="6" height="6"></rect></g>
<g transform="translate(553.66666666667,861.66666666667) scale(3.7766666666667)"><rect width="6" height="6"></rect></g>
<g transform="translate(597.66666666667,861.66666666667) scale(3.7766666666667)"><rect width="6" height="6"></rect></g>
<g transform="translate(619.66666666667,861.66666666667) scale(3.7766666666667)"><rect width="6" height="6"></rect></g>
<g transform="translate(641.66666666667,861.66666666667) scale(3.7766666666667)"><rect width="6" height="6"></rect></g>
<g transform="translate(795.66666666667,861.66666666667) scale(3.7766666666667)"><rect width="6" height="6"></rect></g>
<g transform="translate(817.66666666667,861.66666666667) scale(3.7766666666667)"><rect width="6" height="6"></rect></g>
<g transform="translate(839.66666666667,861.66666666667) scale(3.7766666666667)"><rect width="6" height="6"></rect></g>
<g transform="translate(311.66666666667,883.66666666667) scale(3.7766666666667)"><rect width="6" height="6"></rect></g>
<g transform="translate(355.66666666667,883.66666666667) scale(3.7766666666667)"><rect width="6" height="6"></rect></g>
<g transform="translate(399.66666666667,883.66666666667) scale(3.7766666666667)"><rect width="6" height="6"></rect></g>
<g transform="translate(465.66666666667,883.66666666667) scale(3.7766666666667)"><rect width="6" height="6"></rect></g>
<g transform="translate(553.66666666667,883.66666666667) scale(3.7766666666667)"><rect width="6" height="6"></rect></g>
<g transform="translate(619.66666666667,883.66666666667) scale(3.7766666666667)"><rect width="6" height="6"></rect></g>
<g transform="translate(663.66666666667,883.66666666667) scale(3.7766666666667)"><rect width="6" height="6"></rect></g>
<g transform="translate(707.66666666667,883.66666666667) scale(3.7766666666667)"><rect width="6" height="6"></rect></g>
<g transform="translate(729.66666666667,883.66666666667) scale(3.7766666666667)"><rect width="6" height="6"></rect></g>
<g transform="translate(751.66666666667,883.66666666667) scale(3.7766666666667)"><rect width="6" height="6"></rect></g>
<g transform="translate(773.66666666667,883.66666666667) scale(3.7766666666667)"><rect width="6" height="6"></rect></g>
<g transform="translate(817.66666666667,883.66666666667) scale(3.7766666666667)"><rect width="6" height="6"></rect></g>
<g transform="translate(927.66666666667,883.66666666667) scale(3.7766666666667)"><rect width="6" height="6"></rect></g>
<g transform="translate(333.66666666667,905.66666666667) scale(3.7766666666667)"><rect width="6" height="6"></rect></g>
<g transform="translate(377.66666666667,905.66666666667) scale(3.7766666666667)"><rect width="6" height="6"></rect></g>
<g transform="translate(443.66666666667,905.66666666667) scale(3.7766666666667)"><rect width="6" height="6"></rect></g>
<g transform="translate(531.66666666667,905.66666666667) scale(3.7766666666667)"><rect width="6" height="6"></rect></g>
<g transform="translate(553.66666666667,905.66666666667) scale(3.7766666666667)"><rect width="6" height="6"></rect></g>
<g transform="translate(619.66666666667,905.66666666667) scale(3.7766666666667)"><rect width="6" height="6"></rect></g>
<g transform="translate(641.66666666667,905.66666666667) scale(3.7766666666667)"><rect width="6" height="6"></rect></g>
<g transform="translate(707.66666666667,905.66666666667) scale(3.7766666666667)"><rect width="6" height="6"></rect></g>
<g transform="translate(729.66666666667,905.66666666667) scale(3.7766666666667)"><rect width="6" height="6"></rect></g>
<g transform="translate(751.66666666667,905.66666666667) scale(3.7766666666667)"><rect width="6" height="6"></rect></g>
<g transform="translate(795.66666666667,905.66666666667) scale(3.7766666666667)"><rect width="6" height="6"></rect></g>
<g transform="translate(817.66666666667,905.66666666667) scale(3.7766666666667)"><rect width="6" height="6"></rect></g>
<g transform="translate(927.66666666667,905.66666666667) scale(3.7766666666667)"><rect width="6" height="6"></rect></g>
<g transform="translate(333.66666666667,927.66666666667) scale(3.7766666666667)"><rect width="6" height="6"></rect></g>
<g transform="translate(355.66666666667,927.66666666667) scale(3.7766666666667)"><rect width="6" height="6"></rect></g>
<g transform="translate(421.66666666667,927.66666666667) scale(3.7766666666667)"><rect width="6" height="6"></rect></g>
<g transform="translate(443.66666666667,927.66666666667) scale(3.7766666666667)"><rect width="6" height="6"></rect></g>
<g transform="translate(465.66666666667,927.66666666667) scale(3.7766666666667)"><rect width="6" height="6"></rect></g>
<g transform="translate(597.66666666667,927.66666666667) scale(3.7766666666667)"><rect width="6" height="6"></rect></g>
<g transform="translate(619.66666666667,927.66666666667) scale(3.7766666666667)"><rect width="6" height="6"></rect></g>
<g transform="translate(641.66666666667,927.66666666667) scale(3.7766666666667)"><rect width="6" height="6"></rect></g>
<g transform="translate(663.66666666667,927.66666666667) scale(3.7766666666667)"><rect width="6" height="6"></rect></g>
<g transform="translate(685.66666666667,927.66666666667) scale(3.7766666666667)"><rect width="6" height="6"></rect></g>
<g transform="translate(707.66666666667,927.66666666667) scale(3.7766666666667)"><rect width="6" height="6"></rect></g>
<g transform="translate(773.66666666667,927.66666666667) scale(3.7766666666667)"><rect width="6" height="6"></rect></g>
<g transform="translate(817.66666666667,927.66666666667) scale(3.7766666666667)"><rect width="6" height="6"></rect></g>
<g transform="translate(861.66666666667,927.66666666667) scale(3.7766666666667)"><rect width="6" height="6"></rect></g>
<g transform="translate(883.66666666667,927.66666666667) scale(3.7766666666667)"><rect width="6" height="6"></rect></g>
<g transform="translate(905.66666666667,927.66666666667) scale(3.7766666666667)"><rect width="6" height="6"></rect></g>
<g transform="translate(927.66666666667,927.66666666667) scale(3.7766666666667)"><rect width="6" height="6"></rect></g>
</g><g><g transform="translate(135.66666666667,135.66666666667)" fill="#000000"><g transform="scale(11)"><path d="M0,0v14h14V0H0z M12,12H2V2h10V12z"></path></g></g>
<g transform="translate(795.66666666667,135.66666666667)" fill="#000000"><g transform="scale(11)"><path d="M0,0v14h14V0H0z M12,12H2V2h10V12z"></path></g></g>
<g transform="translate(135.66666666667,795.66666666667)" fill="#000000"><g transform="scale(11)"><path d="M0,0v14h14V0H0z M12,12H2V2h10V12z"></path></g></g>
<g transform="translate(179.66666666667,179.66666666667)" fill="#000000"><g transform="scale(11)"><rect width="6" height="6"></rect></g></g>
<g transform="translate(839.66666666667,179.66666666667)" fill="#000000"><g transform="scale(11)"><rect width="6" height="6"></rect></g></g>
<g transform="translate(179.66666666667,839.66666666667)" fill="#000000"><g transform="scale(11)"><rect width="6" height="6"></rect></g></g></g>
<text fill="#FFFFFF" font-family="\'Courier New\', Courier, monospace" font-size="130px" text-anchor="middle" x="647.41666666667" y="189.35444444444" transform="translate(0,1116.9888888889)">GH repo</text></svg>